# xmcd CD database file generated by Grip 2.96
# 
# Track frame offsets:
#       150
#       19374
#       34818
#       51153
#       68136
#       86172
#       101697
#       115629
#       132990
# 
# Disc length: 2235 seconds
# 
# Revision: 0
# Processed by: cddbd v1.4PL0 Copyright (c) Steve Scherf et al.
# Submitted via: Grip 2.96
# 
DISCID=7908b909
DTITLE=martin gibson - country music spoken here
DYEAR=1900
DGENRE=
TTITLE0=Country Music Spoken Here
TTITLE1=The Rose is for Her, The Beer is for Me.
TTITLE2=Pictures on my Wall
TTITLE3=It Aint Shakespeare
TTITLE4=When You're Lying Next to Me.
TTITLE5=Thick or Thin
TTITLE6=He Broke My Heart on Valentines Day
TTITLE7=Are You Listening to your Heart?
TTITLE8=I Remember Memphis
EXTD=
EXTT0=
EXTT1=
EXTT2=
EXTT3=
EXTT4=
EXTT5=
EXTT6=
EXTT7=
EXTT8=
PLAYORDER=
